<?xml version="1.0" encoding="UTF-8"?>
<svg width="700pt" height="700pt" version="1.1" viewBox="0 0 700 700" xmlns="http://www.w3.org/2000/svg" xmlns:xlink="http://www.w3.org/1999/xlink">
 <defs>
  <symbol id="x" overflow="visible">
   <path d="m18.766-1.125c-0.96875 0.5-1.9805 0.875-3.0312 1.125-1.043 0.25781-2.1367 0.39062-3.2812 0.39062-3.3984 0-6.0898-0.94531-8.0781-2.8438-1.9922-1.9062-2.9844-4.4844-2.9844-7.7344 0-3.2578 0.99219-5.8359 2.9844-7.7344 1.9883-1.9062 4.6797-2.8594 8.0781-2.8594 1.1445 0 2.2383 0.13281 3.2812 0.39062 1.0508 0.25 2.0625 0.625 3.0312 1.125v4.2188c-0.98047-0.65625-1.9453-1.1406-2.8906-1.4531-0.94922-0.3125-1.9492-0.46875-3-0.46875-1.875 0-3.3516 0.60547-4.4219 1.8125-1.0742 1.1992-1.6094 2.8555-1.6094 4.9688 0 2.1055 0.53516 3.7617 1.6094 4.9688 1.0703 1.1992 2.5469 1.7969 4.4219 1.7969 1.0508 0 2.0508-0.14844 3-0.45312 0.94531-0.3125 1.9102-0.80078 2.8906-1.4688z"/>
  </symbol>
  <symbol id="e" overflow="visible">
   <path d="m13.734-11.141c-0.4375-0.19531-0.87109-0.34375-1.2969-0.4375-0.41797-0.10156-0.83984-0.15625-1.2656-0.15625-1.2617 0-2.2305 0.40625-2.9062 1.2188-0.67969 0.80469-1.0156 1.9531-1.0156 3.4531v7.0625h-4.8906v-15.312h4.8906v2.5156c0.625-1 1.3438-1.7266 2.1562-2.1875 0.82031-0.46875 1.8008-0.70312 2.9375-0.70312 0.16406 0 0.34375 0.011719 0.53125 0.03125 0.19531 0.011719 0.47656 0.039062 0.84375 0.078125z"/>
  </symbol>
  <symbol id="b" overflow="visible">
   <path d="m17.641-7.7031v1.4062h-11.453c0.125 1.1484 0.53906 2.0078 1.25 2.5781 0.70703 0.57422 1.7031 0.85938 2.9844 0.85938 1.0312 0 2.082-0.14844 3.1562-0.45312 1.082-0.3125 2.1914-0.77344 3.3281-1.3906v3.7656c-1.1562 0.4375-2.3125 0.76562-3.4688 0.98438-1.1562 0.22656-2.3125 0.34375-3.4688 0.34375-2.7734 0-4.9297-0.70312-6.4688-2.1094-1.5312-1.4062-2.2969-3.3789-2.2969-5.9219 0-2.5 0.75391-4.4609 2.2656-5.8906 1.5078-1.4375 3.582-2.1562 6.2188-2.1562 2.4062 0 4.332 0.73047 5.7812 2.1875 1.4453 1.4492 2.1719 3.3828 2.1719 5.7969zm-5.0312-1.625c0-0.92578-0.27344-1.6719-0.8125-2.2344-0.54297-0.57031-1.25-0.85938-2.125-0.85938-0.94922 0-1.7188 0.26562-2.3125 0.79688s-0.96484 1.2969-1.1094 2.2969z"/>
  </symbol>
  <symbol id="a" overflow="visible">
   <path d="m9.2188-6.8906c-1.0234 0-1.793 0.17188-2.3125 0.51562-0.51172 0.34375-0.76562 0.85547-0.76562 1.5312 0 0.625 0.20703 1.1172 0.625 1.4688 0.41406 0.34375 0.98828 0.51562 1.7188 0.51562 0.92578 0 1.7031-0.32812 2.3281-0.98438 0.63281-0.66406 0.95312-1.4922 0.95312-2.4844v-0.5625zm7.4688-1.8438v8.7344h-4.9219v-2.2656c-0.65625 0.92969-1.3984 1.6055-2.2188 2.0312-0.82422 0.41406-1.8242 0.625-3 0.625-1.5859 0-2.8711-0.45703-3.8594-1.375-0.99219-0.92578-1.4844-2.1289-1.4844-3.6094 0-1.7891 0.61328-3.1016 1.8438-3.9375 1.2383-0.84375 3.1797-1.2656 5.8281-1.2656h2.8906v-0.39062c0-0.76953-0.30859-1.332-0.92188-1.6875-0.61719-0.36328-1.5703-0.54688-2.8594-0.54688-1.0547 0-2.0312 0.10547-2.9375 0.3125-0.89844 0.21094-1.7305 0.52344-2.5 0.9375v-3.7344c1.0391-0.25 2.0859-0.44141 3.1406-0.57812 1.0625-0.13281 2.125-0.20312 3.1875-0.20312 2.7578 0 4.75 0.54688 5.9688 1.6406 1.2266 1.0859 1.8438 2.8555 1.8438 5.3125z"/>
  </symbol>
  <symbol id="d" overflow="visible">
   <path d="m7.7031-19.656v4.3438h5.0469v3.5h-5.0469v6.5c0 0.71094 0.14062 1.1875 0.42188 1.4375s0.83594 0.375 1.6719 0.375h2.5156v3.5h-4.1875c-1.9375 0-3.3125-0.39844-4.125-1.2031-0.80469-0.8125-1.2031-2.1797-1.2031-4.1094v-6.5h-2.4219v-3.5h2.4219v-4.3438z"/>
  </symbol>
  <symbol id="i" overflow="visible">
   <path d="m12.766-13.078v-8.2031h4.9219v21.281h-4.9219v-2.2188c-0.66797 0.90625-1.4062 1.5703-2.2188 1.9844s-1.7578 0.625-2.8281 0.625c-1.8867 0-3.4336-0.75-4.6406-2.25-1.2109-1.5-1.8125-3.4258-1.8125-5.7812 0-2.3633 0.60156-4.2969 1.8125-5.7969 1.207-1.5 2.7539-2.25 4.6406-2.25 1.0625 0 2 0.21484 2.8125 0.64062 0.82031 0.42969 1.5664 1.0859 2.2344 1.9688zm-3.2188 9.9219c1.0391 0 1.8359-0.37891 2.3906-1.1406 0.55078-0.76953 0.82812-1.8828 0.82812-3.3438 0-1.457-0.27734-2.5664-0.82812-3.3281-0.55469-0.76953-1.3516-1.1562-2.3906-1.1562-1.043 0-1.8398 0.38672-2.3906 1.1562-0.55469 0.76172-0.82812 1.8711-0.82812 3.3281 0 1.4609 0.27344 2.5742 0.82812 3.3438 0.55078 0.76172 1.3477 1.1406 2.3906 1.1406z"/>
  </symbol>
  <symbol id="h" overflow="visible">
   <path d="m10.5-3.1562c1.0508 0 1.8516-0.37891 2.4062-1.1406 0.55078-0.76953 0.82812-1.8828 0.82812-3.3438 0-1.457-0.27734-2.5664-0.82812-3.3281-0.55469-0.76953-1.3555-1.1562-2.4062-1.1562-1.0547 0-1.8594 0.38672-2.4219 1.1562-0.55469 0.77344-0.82812 1.8828-0.82812 3.3281 0 1.4492 0.27344 2.5586 0.82812 3.3281 0.5625 0.77344 1.3672 1.1562 2.4219 1.1562zm-3.25-9.9219c0.67578-0.88281 1.4219-1.5391 2.2344-1.9688 0.82031-0.42578 1.7656-0.64062 2.8281-0.64062 1.8945 0 3.4453 0.75 4.6562 2.25 1.207 1.5 1.8125 3.4336 1.8125 5.7969 0 2.3555-0.60547 4.2812-1.8125 5.7812-1.2109 1.5-2.7617 2.25-4.6562 2.25-1.0625 0-2.0078-0.21094-2.8281-0.625-0.8125-0.42578-1.5586-1.0859-2.2344-1.9844v2.2188h-4.8906v-21.281h4.8906z"/>
  </symbol>
  <symbol id="c" overflow="visible">
   <path d="m0.34375-15.312h4.8906l4.125 10.391 3.5-10.391h4.8906l-6.4375 16.766c-0.64844 1.6953-1.4023 2.8828-2.2656 3.5625-0.86719 0.6875-2 1.0312-3.4062 1.0312h-2.8438v-3.2188h1.5312c0.83203 0 1.4375-0.13672 1.8125-0.40625 0.38281-0.26172 0.67969-0.73047 0.89062-1.4062l0.14062-0.42188z"/>
  </symbol>
  <symbol id="l" overflow="visible">
   <path d="m10.047-11.359c1.1016 0 1.8945-0.20312 2.375-0.60938 0.47656-0.41406 0.71875-1.0938 0.71875-2.0312 0-0.92578-0.24219-1.5859-0.71875-1.9844-0.48047-0.40625-1.2734-0.60938-2.375-0.60938h-2.2188v5.2344zm-2.2188 3.6406v7.7188h-5.25v-20.406h8.0312c2.6875 0 4.6562 0.45312 5.9062 1.3594 1.2578 0.89844 1.8906 2.3203 1.8906 4.2656 0 1.3555-0.32812 2.4648-0.98438 3.3281-0.64844 0.86719-1.625 1.5-2.9375 1.9062 0.71875 0.16797 1.3594 0.54297 1.9219 1.125 0.57031 0.57422 1.1484 1.4492 1.7344 2.625l2.8594 5.7969h-5.6094l-2.4844-5.0781c-0.5-1.0195-1.0117-1.7109-1.5312-2.0781-0.51172-0.375-1.1953-0.5625-2.0469-0.5625z"/>
  </symbol>
  <symbol id="k" overflow="visible">
   <path d="m2.3594-15.312h4.8906v15.312h-4.8906zm0-5.9688h4.8906v4h-4.8906z"/>
  </symbol>
  <symbol id="w" overflow="visible">
   <path d="m5.9062-20.406v7.5781h-3.2344v-7.5781z"/>
  </symbol>
  <symbol id="g" overflow="visible">
   <path d="m17.75-9.3281v9.3281h-4.9219v-7.1094c0-1.3438-0.03125-2.2656-0.09375-2.7656s-0.16797-0.86719-0.3125-1.1094c-0.1875-0.3125-0.44922-0.55469-0.78125-0.73438-0.32422-0.17578-0.69531-0.26562-1.1094-0.26562-1.0234 0-1.8242 0.39844-2.4062 1.1875-0.58594 0.78125-0.875 1.8711-0.875 3.2656v7.5312h-4.8906v-21.281h4.8906v8.2031c0.73828-0.88281 1.5195-1.5391 2.3438-1.9688 0.83203-0.42578 1.75-0.64062 2.75-0.64062 1.7695 0 3.1133 0.54688 4.0312 1.6406 0.91406 1.0859 1.375 2.6562 1.375 4.7188z"/>
  </symbol>
  <symbol id="j" overflow="visible">
   <path d="m14.953-3.7188h-8.2188l-1.3125 3.7188h-5.2812l7.5625-20.406h6.2656l7.5625 20.406h-5.2812zm-6.9062-3.7812h5.5781l-2.7812-8.125z"/>
  </symbol>
  <symbol id="v" overflow="visible">
   <path d="m2.3594-21.281h4.8906v21.281h-4.8906z"/>
  </symbol>
  <symbol id="u" overflow="visible">
   <path d="m0.98438-15.312h4.7656l2.5625 10.547 2.5781-10.547h4.0938l2.5781 10.438 2.5781-10.438h4.75l-4.0312 15.312h-5.3438l-2.5781-10.531-2.5781 10.531h-5.3438z"/>
  </symbol>
  <symbol id="t" overflow="visible">
   <path d="m12.422-21.281v3.2188h-2.7031c-0.6875 0-1.1719 0.125-1.4531 0.375-0.27344 0.25-0.40625 0.6875-0.40625 1.3125v1.0625h4.1875v3.5h-4.1875v11.812h-4.8906v-11.812h-2.4375v-3.5h2.4375v-1.0625c0-1.6641 0.46094-2.8984 1.3906-3.7031 0.92578-0.80078 2.3672-1.2031 4.3281-1.2031z"/>
  </symbol>
  <symbol id="f" overflow="visible">
   <path d="m9.6406-12.188c-1.0859 0-1.9141 0.39062-2.4844 1.1719-0.57422 0.78125-0.85938 1.9062-0.85938 3.375s0.28516 2.5938 0.85938 3.375c0.57031 0.77344 1.3984 1.1562 2.4844 1.1562 1.0625 0 1.875-0.38281 2.4375-1.1562 0.57031-0.78125 0.85938-1.9062 0.85938-3.375s-0.28906-2.5938-0.85938-3.375c-0.5625-0.78125-1.375-1.1719-2.4375-1.1719zm0-3.5c2.6328 0 4.6914 0.71484 6.1719 2.1406 1.4766 1.418 2.2188 3.3867 2.2188 5.9062 0 2.5117-0.74219 4.4805-2.2188 5.9062-1.4805 1.418-3.5391 2.125-6.1719 2.125-2.6484 0-4.7148-0.70703-6.2031-2.125-1.4922-1.4258-2.2344-3.3945-2.2344-5.9062 0-2.5195 0.74219-4.4883 2.2344-5.9062 1.4883-1.4258 3.5547-2.1406 6.2031-2.1406z"/>
  </symbol>
  <symbol id="s" overflow="visible">
   <path d="m16.547-12.766c0.61328-0.94531 1.3477-1.6719 2.2031-2.1719 0.85156-0.5 1.7891-0.75 2.8125-0.75 1.7578 0 3.0977 0.54688 4.0156 1.6406 0.92578 1.0859 1.3906 2.6562 1.3906 4.7188v9.3281h-4.9219v-7.9844-0.35938c0.007813-0.13281 0.015625-0.32031 0.015625-0.5625 0-1.082-0.16406-1.8633-0.48438-2.3438-0.3125-0.48828-0.82422-0.73438-1.5312-0.73438-0.92969 0-1.6484 0.38672-2.1562 1.1562-0.51172 0.76172-0.77344 1.8672-0.78125 3.3125v7.5156h-4.9219v-7.9844c0-1.6953-0.14844-2.7852-0.4375-3.2656-0.29297-0.48828-0.8125-0.73438-1.5625-0.73438-0.9375 0-1.6641 0.38672-2.1719 1.1562-0.51172 0.76172-0.76562 1.8594-0.76562 3.2969v7.5312h-4.9219v-15.312h4.9219v2.2344c0.60156-0.86328 1.2891-1.5156 2.0625-1.9531 0.78125-0.4375 1.6406-0.65625 2.5781-0.65625 1.0625 0 2 0.25781 2.8125 0.76562 0.8125 0.51172 1.4258 1.2305 1.8438 2.1562z"/>
  </symbol>
  <symbol id="r" overflow="visible">
   <path d="m2.5781-20.406h5.875l7.4219 14v-14h4.9844v20.406h-5.875l-7.4219-14v14h-4.9844z"/>
  </symbol>
  <symbol id="q" overflow="visible">
   <path d="m2.1875-5.9688v-9.3438h4.9219v1.5312c0 0.83594-0.007813 1.875-0.015625 3.125-0.011719 1.25-0.015625 2.0859-0.015625 2.5 0 1.2422 0.03125 2.1328 0.09375 2.6719 0.070313 0.54297 0.17969 0.93359 0.32812 1.1719 0.20703 0.32422 0.47266 0.57422 0.79688 0.75 0.32031 0.16797 0.69141 0.25 1.1094 0.25 1.0195 0 1.8203-0.39062 2.4062-1.1719 0.58203-0.78125 0.875-1.8672 0.875-3.2656v-7.5625h4.8906v15.312h-4.8906v-2.2188c-0.74219 0.89844-1.5234 1.5586-2.3438 1.9844-0.82422 0.41406-1.7344 0.625-2.7344 0.625-1.7617 0-3.1055-0.53906-4.0312-1.625-0.92969-1.082-1.3906-2.6602-1.3906-4.7344z"/>
  </symbol>
  <symbol id="p" overflow="visible">
   <path d="m17.75-9.3281v9.3281h-4.9219v-7.1406c0-1.3203-0.03125-2.2344-0.09375-2.7344s-0.16797-0.86719-0.3125-1.1094c-0.1875-0.3125-0.44922-0.55469-0.78125-0.73438-0.32422-0.17578-0.69531-0.26562-1.1094-0.26562-1.0234 0-1.8242 0.39844-2.4062 1.1875-0.58594 0.78125-0.875 1.8711-0.875 3.2656v7.5312h-4.8906v-15.312h4.8906v2.2344c0.73828-0.88281 1.5195-1.5391 2.3438-1.9688 0.83203-0.42578 1.75-0.64062 2.75-0.64062 1.7695 0 3.1133 0.54688 4.0312 1.6406 0.91406 1.0859 1.375 2.6562 1.375 4.7188z"/>
  </symbol>
  <symbol id="o" overflow="visible">
   <path d="m2.5781-20.406h8.7344c2.5938 0 4.582 0.57812 5.9688 1.7344 1.3945 1.1484 2.0938 2.7891 2.0938 4.9219 0 2.1367-0.69922 3.7812-2.0938 4.9375-1.3867 1.1562-3.375 1.7344-5.9688 1.7344h-3.4844v7.0781h-5.25zm5.25 3.8125v5.7031h2.9219c1.0195 0 1.8047-0.25 2.3594-0.75 0.5625-0.5 0.84375-1.2031 0.84375-2.1094 0-0.91406-0.28125-1.6172-0.84375-2.1094-0.55469-0.48828-1.3398-0.73438-2.3594-0.73438z"/>
  </symbol>
  <symbol id="n" overflow="visible">
   <path d="m2.3594-15.312h4.8906v15.031c0 2.0508-0.49609 3.6172-1.4844 4.7031-0.98047 1.082-2.4062 1.625-4.2812 1.625h-2.4219v-3.2188h0.85938c0.92578 0 1.5625-0.21094 1.9062-0.625 0.35156-0.41797 0.53125-1.2461 0.53125-2.4844zm0-5.9688h4.8906v4h-4.8906z"/>
  </symbol>
  <symbol id="m" overflow="visible">
   <path d="m14.719-14.828v3.9844c-0.65625-0.45703-1.3242-0.79688-2-1.0156-0.66797-0.21875-1.3594-0.32812-2.0781-0.32812-1.3672 0-2.4336 0.40234-3.2031 1.2031-0.76172 0.79297-1.1406 1.9062-1.1406 3.3438 0 1.4297 0.37891 2.543 1.1406 3.3438 0.76953 0.79297 1.8359 1.1875 3.2031 1.1875 0.75781 0 1.4844-0.10938 2.1719-0.32812 0.6875-0.22656 1.3203-0.56641 1.9062-1.0156v4c-0.76172 0.28125-1.5391 0.48828-2.3281 0.625-0.78125 0.14453-1.5742 0.21875-2.375 0.21875-2.7617 0-4.9219-0.70703-6.4844-2.125-1.5547-1.4141-2.3281-3.3828-2.3281-5.9062 0-2.5312 0.77344-4.5039 2.3281-5.9219 1.5625-1.4141 3.7227-2.125 6.4844-2.125 0.80078 0 1.5938 0.074219 2.375 0.21875 0.78125 0.13672 1.5547 0.35156 2.3281 0.64062z"/>
  </symbol>
 </defs>
 <g>
  <path d="m460.88 216.39c-0.003906-29.406-11.688-57.605-32.484-78.398-20.797-20.789-49-32.469-78.406-32.465s-57.605 11.688-78.398 32.48c-20.793 20.797-32.473 48.996-32.469 78.402 0 29.406 11.684 57.609 32.477 78.402 20.793 20.793 48.996 32.473 78.402 32.473 29.398-0.039062 57.582-11.734 78.367-32.523 20.785-20.789 32.48-48.973 32.512-78.371zm-110.88 95.625c-25.363 0-49.684-10.074-67.617-28.008-17.934-17.934-28.008-42.258-28.008-67.617 0-25.363 10.074-49.684 28.008-67.617 17.934-17.934 42.254-28.008 67.617-28.008s49.684 10.074 67.617 28.008c17.934 17.934 28.008 42.254 28.008 67.617-0.035156 25.348-10.121 49.652-28.047 67.578s-42.227 28.012-67.578 28.047zm50.359-122.23-49.898 61.84c-1.2891 1.5898-3.1562 2.5977-5.1914 2.8008-0.25391 0.023438-0.50781 0.035157-0.75781 0.035157v-0.003907c-1.7852 0-3.5156-0.625-4.8867-1.7695l-32.543-27.121c-3.2383-2.6953-3.6797-7.5117-0.98047-10.75 2.6992-3.2383 7.5117-3.6797 10.754-0.98047l26.59 22.152 45.035-55.805-0.003907 0.003906c2.6836-3.1602 7.3945-3.6016 10.621-1 3.2227 2.6055 3.7852 7.3008 1.2617 10.59zm134.61 304.08-46.758-152.82c3.3945-1.5977 6.3906-3.9258 8.7812-6.8203 5.9531-7.4141 6.1133-17.414 6.2539-26.242-0.32422-5.2773 0.35547-10.566 2.0039-15.59 2.9453-4.3594 6.6719-8.1367 10.992-11.137 7-5.6914 14.93-12.141 17.168-21.676 2.207-9.418-1.9141-18.809-5.5508-27.094l0.003907-0.003907c-2.6523-5.0078-4.3633-10.465-5.0391-16.094 0.67969-5.625 2.3867-11.078 5.0391-16.086 3.6328-8.2891 7.7578-17.672 5.5508-27.094-2.2383-9.5195-10.168-15.988-17.168-21.684h-0.003906c-4.3242-2.9961-8.0508-6.7734-10.992-11.141-1.6484-5.0195-2.3281-10.312-2.0039-15.59-0.14062-8.8242-0.30078-18.828-6.2539-26.242s-15.68-9.7344-24.266-11.762v0.003906c-5.1758-0.80078-10.148-2.582-14.652-5.2539-3.5742-3.8086-6.3945-8.2617-8.3086-13.121-3.8867-7.9805-8.293-17.023-16.922-21.281-8.6289-4.2578-18.48-2.2109-27.184-0.44922v0.003906c-5.2109 1.4766-10.652 1.957-16.043 1.4219-5.0391-1.875-9.6875-4.6602-13.715-8.2148-7.3867-5.5664-15.777-11.895-25.906-11.895s-18.52 6.3281-25.918 11.918c-4.0234 3.5625-8.6719 6.3555-13.707 8.2422-5.3906 0.53516-10.836 0.054688-16.051-1.4219-8.7188-1.7656-18.602-3.7578-27.184 0.44922-8.5781 4.207-13.035 13.277-16.93 21.281l0.003906-0.003906c-1.918 4.8438-4.7305 9.2773-8.293 13.07-4.5039 2.668-9.4727 4.4531-14.641 5.2539-8.5781 2.0391-18.305 4.3398-24.266 11.762-5.957 7.4219-6.1133 17.414-6.2539 26.242v-0.003907c0.32422 5.2773-0.35547 10.57-2.0039 15.59-2.9414 4.3672-6.668 8.1445-10.992 11.141-7 5.6914-14.93 12.141-17.168 21.684-2.207 9.418 1.9141 18.805 5.5508 27.094h-0.003907c2.6523 5.0078 4.3594 10.461 5.0391 16.086-0.67969 5.6289-2.3867 11.086-5.0391 16.094-3.6328 8.2812-7.7578 17.672-5.5508 27.094 2.2383 9.5195 10.168 15.988 17.168 21.676l0.003906 0.003906c4.3203 3 8.0508 6.7773 10.992 11.145 1.6484 5.0273 2.3242 10.324 1.9922 15.605 0.14062 8.8203 0.30078 18.828 6.2539 26.242 2.3945 2.8828 5.3906 5.2031 8.7812 6.7969l-46.762 152.83 0.003906 0.003906c-0.89453 2.9492 0.078125 6.1484 2.457 8.1055 2.3789 1.9609 5.7031 2.2969 8.4297 0.85156l53.543-28.461 28.461 53.547-0.003907 0.003907c1.3242 2.4844 3.9023 4.043 6.7188 4.0547 0.24219 0 0.48828 0 0.73438-0.035156 3.0742-0.29688 5.668-2.4141 6.5703-5.3711l42.875-140.11-0.003906 0.003906c3.2266 1.918 6.3164 4.0508 9.2539 6.3828 7.3984 5.6016 15.785 11.918 25.918 11.918 10.129 0 18.52-6.332 25.918-11.918h-0.003907c2.9375-2.332 6.0273-4.4648 9.25-6.3828l42.875 140.11v-0.003906c0.90234 2.957 3.4922 5.0742 6.5703 5.3711 0.24609 0 0.49219 0.035156 0.73438 0.035156h-0.003907c2.8164-0.011718 5.3984-1.5703 6.7227-4.0547l28.461-53.547 53.582 28.508c2.7266 1.4453 6.0508 1.1055 8.4297-0.85156 2.3789-1.957 3.3516-5.1562 2.457-8.1055zm-272.22 10.641-23.391-44.016c-1.9805-3.7227-6.6016-5.1367-10.324-3.1602l-44.012 23.387 41.289-134.96 0.95703 0.22266v0.003907c5.168 0.80469 10.137 2.5859 14.641 5.25 3.5742 3.8125 6.3906 8.2656 8.3086 13.129 3.8867 7.9805 8.3008 17.023 16.922 21.281 8.625 4.2578 18.48 2.2109 27.184 0.44922 1.6797-0.33594 3.3164-0.66797 4.957-0.95703zm103.96-123.83c-6.0195 4.543-11.676 8.832-16.715 8.832s-10.695-4.2891-16.715-8.832c-5.6562-4.9297-12.266-8.6406-19.422-10.898-0.98828-0.22266-1.9844-0.39453-2.9922-0.51172-0.13281 0-0.26172-0.042969-0.39844-0.054687l0.003906-0.003907c-1.2227-0.13281-2.4492-0.19531-3.6758-0.19531-5.2227 0.18359-10.414 0.88281-15.5 2.0898-6.6484 1.3438-13.512 2.7344-17.434 0.8125-3.9219-1.9219-6.9727-8.1797-9.9219-14.234v-0.003907c-2.7656-6.9453-7.0234-13.199-12.477-18.316-6.2031-4.2266-13.262-7.0312-20.676-8.2031-6.4922-1.5391-13.203-3.1289-15.875-6.4609-2.6719-3.332-2.8008-10.246-2.8945-16.934v-0.003907c0.4375-7.5273-0.78125-15.059-3.5703-22.062-3.7969-6.4414-8.9336-11.988-15.062-16.27-5.3555-4.3516-10.887-8.8477-11.938-13.316-1.0547-4.4688 1.8594-11.07 4.6641-17.465 3.625-6.8945 5.7812-14.465 6.332-22.234-0.55469-7.7656-2.7109-15.336-6.332-22.23-2.8008-6.3945-5.707-13.004-4.6641-17.461s6.5859-8.9609 11.938-13.324v0.003907c6.1289-4.2734 11.266-9.8125 15.062-16.242 2.793-7.0078 4.0078-14.539 3.5703-22.07 0.10547-6.6797 0.21875-13.59 2.8945-16.93 2.6758-3.3359 9.3867-4.9219 15.875-6.4609 7.4141-1.1719 14.473-3.9766 20.676-8.2031 5.4531-5.125 9.7109-11.387 12.477-18.34 2.9531-6.0547 6.0039-12.32 9.9219-14.234 3.9219-1.9141 10.785-0.53125 17.434 0.8125 7.3398 2.0469 15.035 2.4961 22.562 1.3125 7.1641-2.2695 13.773-6.0039 19.422-10.965 6.0195-4.5156 11.676-8.8086 16.715-8.8086s10.695 4.2891 16.715 8.832c5.6523 4.9375 12.266 8.6445 19.422 10.898 7.5273 1.1836 15.223 0.73438 22.562-1.3164 6.6484-1.3438 13.512-2.7383 17.434-0.8125 3.9219 1.9258 6.9727 8.1797 9.9219 14.234 2.7734 6.957 7.043 13.219 12.504 18.34 6.2031 4.2305 13.262 7.0312 20.676 8.207 6.4922 1.5391 13.203 3.1289 15.875 6.4609s2.8008 10.242 2.8945 16.93h0.003906c-0.44141 7.5273 0.77734 15.062 3.5664 22.07 3.7969 6.4297 8.9375 11.969 15.07 16.238 5.3477 4.3516 10.879 8.8555 11.934 13.324s-1.8594 11.066-4.6641 17.461h-0.003906c-3.6211 6.8906-5.7773 14.461-6.332 22.23 0.55078 7.7695 2.707 15.34 6.332 22.23 2.8008 6.3945 5.707 13.008 4.6641 17.465s-6.5859 8.9609-11.938 13.316v0.003906c-6.125 4.2734-11.262 9.8086-15.062 16.238-2.7891 7.0078-4.0078 14.543-3.5664 22.07-0.10547 6.6875-0.21875 13.598-2.8945 16.93-2.6758 3.332-9.3867 4.9297-15.875 6.4688h-0.003906c-7.418 1.1953-14.48 4.0195-20.676 8.2695-5.4531 5.125-9.7148 11.387-12.477 18.34-2.9531 6.0547-6.0039 12.32-9.9219 14.234-3.9219 1.9141-10.785 0.53125-17.426-0.8125v0.003906c-6.2422-1.6016-12.688-2.2383-19.121-1.8945h-0.26172c-1.0742 0.125-2.1367 0.3125-3.1875 0.55859-7.1641 2.25-13.785 5.957-19.449 10.887zm104.25 76.652c-3.7266-1.9766-8.3477-0.5625-10.328 3.1602l-23.387 44.012-36.527-119.39c1.6406 0.29297 3.3047 0.62109 4.957 0.95703 8.7188 1.7656 18.602 3.7617 27.184-0.44922 8.5781-4.2109 13.035-13.273 16.93-21.281h-0.003906c1.9141-4.8477 4.7266-9.293 8.293-13.098 4.5039-2.6641 9.4727-4.4453 14.641-5.25l0.95703-0.22266 41.289 134.96z"/>
  <use x="70" y="644" xlink:href="#x"/>
  <use x="90.550781" y="644" xlink:href="#e"/>
  <use x="104.359375" y="644" xlink:href="#b"/>
  <use x="123.347656" y="644" xlink:href="#a"/>
  <use x="142.242188" y="644" xlink:href="#d"/>
  <use x="155.628906" y="644" xlink:href="#b"/>
  <use x="174.617188" y="644" xlink:href="#i"/>
  <use x="204.410156" y="644" xlink:href="#h"/>
  <use x="224.453125" y="644" xlink:href="#c"/>
  <use x="252.453125" y="644" xlink:href="#l"/>
  <use x="274.011719" y="644" xlink:href="#a"/>
  <use x="292.90625" y="644" xlink:href="#h"/>
  <use x="312.949219" y="644" xlink:href="#k"/>
  <use x="322.546875" y="644" xlink:href="#w"/>
  <use x="331.117188" y="644" xlink:href="#a"/>
  <use x="350.015625" y="644" xlink:href="#g"/>
  <use x="379.695312" y="644" xlink:href="#j"/>
  <use x="401.367188" y="644" xlink:href="#v"/>
  <use x="420.710938" y="644" xlink:href="#j"/>
  <use x="442.382812" y="644" xlink:href="#i"/>
  <use x="462.421875" y="644" xlink:href="#a"/>
  <use x="481.320312" y="644" xlink:href="#u"/>
  <use x="507.1875" y="644" xlink:href="#k"/>
  <use x="516.78125" y="644" xlink:href="#c"/>
  <use x="535.035156" y="644" xlink:href="#c"/>
  <use x="553.289062" y="644" xlink:href="#a"/>
  <use x="572.179687" y="644" xlink:href="#g"/>
  <use x="70" y="672" xlink:href="#t"/>
  <use x="82.183594" y="672" xlink:href="#e"/>
  <use x="95.992188" y="672" xlink:href="#f"/>
  <use x="115.226562" y="672" xlink:href="#s"/>
  <use x="154.152344" y="672" xlink:href="#d"/>
  <use x="167.535156" y="672" xlink:href="#g"/>
  <use x="187.46875" y="672" xlink:href="#b"/>
  <use x="216.207031" y="672" xlink:href="#r"/>
  <use x="239.640625" y="672" xlink:href="#f"/>
  <use x="258.878906" y="672" xlink:href="#q"/>
  <use x="278.8125" y="672" xlink:href="#p"/>
  <use x="308.492188" y="672" xlink:href="#o"/>
  <use x="329.015625" y="672" xlink:href="#e"/>
  <use x="342.820312" y="672" xlink:href="#f"/>
  <use x="362.058594" y="672" xlink:href="#n"/>
  <use x="371.65625" y="672" xlink:href="#b"/>
  <use x="390.648438" y="672" xlink:href="#m"/>
  <use x="407.242188" y="672" xlink:href="#d"/>
 </g>
</svg>
