<?xml version="1.0" encoding="UTF-8"?>
<svg width="700pt" height="700pt" version="1.1" viewBox="0 0 700 700" xmlns="http://www.w3.org/2000/svg" xmlns:xlink="http://www.w3.org/1999/xlink">
 <defs>
  <symbol id="y" overflow="visible">
   <path d="m18.766-1.125c-0.96875 0.5-1.9805 0.875-3.0312 1.125-1.043 0.25781-2.1367 0.39062-3.2812 0.39062-3.3984 0-6.0898-0.94531-8.0781-2.8438-1.9922-1.9062-2.9844-4.4844-2.9844-7.7344 0-3.2578 0.99219-5.8359 2.9844-7.7344 1.9883-1.9062 4.6797-2.8594 8.0781-2.8594 1.1445 0 2.2383 0.13281 3.2812 0.39062 1.0508 0.25 2.0625 0.625 3.0312 1.125v4.2188c-0.98047-0.65625-1.9453-1.1406-2.8906-1.4531-0.94922-0.3125-1.9492-0.46875-3-0.46875-1.875 0-3.3516 0.60547-4.4219 1.8125-1.0742 1.1992-1.6094 2.8555-1.6094 4.9688 0 2.1055 0.53516 3.7617 1.6094 4.9688 1.0703 1.1992 2.5469 1.7969 4.4219 1.7969 1.0508 0 2.0508-0.14844 3-0.45312 0.94531-0.3125 1.9102-0.80078 2.8906-1.4688z"/>
  </symbol>
  <symbol id="c" overflow="visible">
   <path d="m13.734-11.141c-0.4375-0.19531-0.87109-0.34375-1.2969-0.4375-0.41797-0.10156-0.83984-0.15625-1.2656-0.15625-1.2617 0-2.2305 0.40625-2.9062 1.2188-0.67969 0.80469-1.0156 1.9531-1.0156 3.4531v7.0625h-4.8906v-15.312h4.8906v2.5156c0.625-1 1.3438-1.7266 2.1562-2.1875 0.82031-0.46875 1.8008-0.70312 2.9375-0.70312 0.16406 0 0.34375 0.011719 0.53125 0.03125 0.19531 0.011719 0.47656 0.039062 0.84375 0.078125z"/>
  </symbol>
  <symbol id="a" overflow="visible">
   <path d="m17.641-7.7031v1.4062h-11.453c0.125 1.1484 0.53906 2.0078 1.25 2.5781 0.70703 0.57422 1.7031 0.85938 2.9844 0.85938 1.0312 0 2.082-0.14844 3.1562-0.45312 1.082-0.3125 2.1914-0.77344 3.3281-1.3906v3.7656c-1.1562 0.4375-2.3125 0.76562-3.4688 0.98438-1.1562 0.22656-2.3125 0.34375-3.4688 0.34375-2.7734 0-4.9297-0.70312-6.4688-2.1094-1.5312-1.4062-2.2969-3.3789-2.2969-5.9219 0-2.5 0.75391-4.4609 2.2656-5.8906 1.5078-1.4375 3.582-2.1562 6.2188-2.1562 2.4062 0 4.332 0.73047 5.7812 2.1875 1.4453 1.4492 2.1719 3.3828 2.1719 5.7969zm-5.0312-1.625c0-0.92578-0.27344-1.6719-0.8125-2.2344-0.54297-0.57031-1.25-0.85938-2.125-0.85938-0.94922 0-1.7188 0.26562-2.3125 0.79688s-0.96484 1.2969-1.1094 2.2969z"/>
  </symbol>
  <symbol id="k" overflow="visible">
   <path d="m9.2188-6.8906c-1.0234 0-1.793 0.17188-2.3125 0.51562-0.51172 0.34375-0.76562 0.85547-0.76562 1.5312 0 0.625 0.20703 1.1172 0.625 1.4688 0.41406 0.34375 0.98828 0.51562 1.7188 0.51562 0.92578 0 1.7031-0.32812 2.3281-0.98438 0.63281-0.66406 0.95312-1.4922 0.95312-2.4844v-0.5625zm7.4688-1.8438v8.7344h-4.9219v-2.2656c-0.65625 0.92969-1.3984 1.6055-2.2188 2.0312-0.82422 0.41406-1.8242 0.625-3 0.625-1.5859 0-2.8711-0.45703-3.8594-1.375-0.99219-0.92578-1.4844-2.1289-1.4844-3.6094 0-1.7891 0.61328-3.1016 1.8438-3.9375 1.2383-0.84375 3.1797-1.2656 5.8281-1.2656h2.8906v-0.39062c0-0.76953-0.30859-1.332-0.92188-1.6875-0.61719-0.36328-1.5703-0.54688-2.8594-0.54688-1.0547 0-2.0312 0.10547-2.9375 0.3125-0.89844 0.21094-1.7305 0.52344-2.5 0.9375v-3.7344c1.0391-0.25 2.0859-0.44141 3.1406-0.57812 1.0625-0.13281 2.125-0.20312 3.1875-0.20312 2.7578 0 4.75 0.54688 5.9688 1.6406 1.2266 1.0859 1.8438 2.8555 1.8438 5.3125z"/>
  </symbol>
  <symbol id="b" overflow="visible">
   <path d="m7.7031-19.656v4.3438h5.0469v3.5h-5.0469v6.5c0 0.71094 0.14062 1.1875 0.42188 1.4375s0.83594 0.375 1.6719 0.375h2.5156v3.5h-4.1875c-1.9375 0-3.3125-0.39844-4.125-1.2031-0.80469-0.8125-1.2031-2.1797-1.2031-4.1094v-6.5h-2.4219v-3.5h2.4219v-4.3438z"/>
  </symbol>
  <symbol id="j" overflow="visible">
   <path d="m12.766-13.078v-8.2031h4.9219v21.281h-4.9219v-2.2188c-0.66797 0.90625-1.4062 1.5703-2.2188 1.9844s-1.7578 0.625-2.8281 0.625c-1.8867 0-3.4336-0.75-4.6406-2.25-1.2109-1.5-1.8125-3.4258-1.8125-5.7812 0-2.3633 0.60156-4.2969 1.8125-5.7969 1.207-1.5 2.7539-2.25 4.6406-2.25 1.0625 0 2 0.21484 2.8125 0.64062 0.82031 0.42969 1.5664 1.0859 2.2344 1.9688zm-3.2188 9.9219c1.0391 0 1.8359-0.37891 2.3906-1.1406 0.55078-0.76953 0.82812-1.8828 0.82812-3.3438 0-1.457-0.27734-2.5664-0.82812-3.3281-0.55469-0.76953-1.3516-1.1562-2.3906-1.1562-1.043 0-1.8398 0.38672-2.3906 1.1562-0.55469 0.76172-0.82812 1.8711-0.82812 3.3281 0 1.4609 0.27344 2.5742 0.82812 3.3438 0.55078 0.76172 1.3477 1.1406 2.3906 1.1406z"/>
  </symbol>
  <symbol id="i" overflow="visible">
   <path d="m10.5-3.1562c1.0508 0 1.8516-0.37891 2.4062-1.1406 0.55078-0.76953 0.82812-1.8828 0.82812-3.3438 0-1.457-0.27734-2.5664-0.82812-3.3281-0.55469-0.76953-1.3555-1.1562-2.4062-1.1562-1.0547 0-1.8594 0.38672-2.4219 1.1562-0.55469 0.77344-0.82812 1.8828-0.82812 3.3281 0 1.4492 0.27344 2.5586 0.82812 3.3281 0.5625 0.77344 1.3672 1.1562 2.4219 1.1562zm-3.25-9.9219c0.67578-0.88281 1.4219-1.5391 2.2344-1.9688 0.82031-0.42578 1.7656-0.64062 2.8281-0.64062 1.8945 0 3.4453 0.75 4.6562 2.25 1.207 1.5 1.8125 3.4336 1.8125 5.7969 0 2.3555-0.60547 4.2812-1.8125 5.7812-1.2109 1.5-2.7617 2.25-4.6562 2.25-1.0625 0-2.0078-0.21094-2.8281-0.625-0.8125-0.42578-1.5586-1.0859-2.2344-1.9844v2.2188h-4.8906v-21.281h4.8906z"/>
  </symbol>
  <symbol id="h" overflow="visible">
   <path d="m0.34375-15.312h4.8906l4.125 10.391 3.5-10.391h4.8906l-6.4375 16.766c-0.64844 1.6953-1.4023 2.8828-2.2656 3.5625-0.86719 0.6875-2 1.0312-3.4062 1.0312h-2.8438v-3.2188h1.5312c0.83203 0 1.4375-0.13672 1.8125-0.40625 0.38281-0.26172 0.67969-0.73047 0.89062-1.4062l0.14062-0.42188z"/>
  </symbol>
  <symbol id="e" overflow="visible">
   <path d="m14.953-3.7188h-8.2188l-1.3125 3.7188h-5.2812l7.5625-20.406h6.2656l7.5625 20.406h-5.2812zm-6.9062-3.7812h5.5781l-2.7812-8.125z"/>
  </symbol>
  <symbol id="x" overflow="visible">
   <path d="m2.5781-20.406h5.25v7.7656h7.7656v-7.7656h5.2656v20.406h-5.2656v-8.6562h-7.7656v8.6562h-5.25z"/>
  </symbol>
  <symbol id="w" overflow="visible">
   <path d="m2.5781-20.406h6.6875l4.6562 10.922 4.6719-10.922h6.6875v20.406h-4.9844v-14.938l-4.7031 11.016h-3.3281l-4.7031-11.016v14.938h-4.9844z"/>
  </symbol>
  <symbol id="g" overflow="visible">
   <path d="m7.8281-16.438v12.453h1.8906c2.1562 0 3.8008-0.53125 4.9375-1.5938 1.1328-1.0625 1.7031-2.6133 1.7031-4.6562 0-2.0195-0.57031-3.5547-1.7031-4.6094-1.125-1.0625-2.7734-1.5938-4.9375-1.5938zm-5.25-3.9688h5.5469c3.0938 0 5.3984 0.21875 6.9219 0.65625 1.5195 0.4375 2.8203 1.1875 3.9062 2.25 0.95703 0.91797 1.6641 1.9805 2.125 3.1875 0.46875 1.1992 0.70312 2.5586 0.70312 4.0781 0 1.543-0.23438 2.918-0.70312 4.125-0.46094 1.2109-1.168 2.2773-2.125 3.2031-1.0938 1.0547-2.4062 1.8047-3.9375 2.25-1.5312 0.4375-3.8281 0.65625-6.8906 0.65625h-5.5469z"/>
  </symbol>
  <symbol id="v" overflow="visible">
   <path d="m16.781-19.766v4.3125c-1.125-0.5-2.2266-0.875-3.2969-1.125-1.0625-0.25781-2.0703-0.39062-3.0156-0.39062-1.25 0-2.1797 0.17969-2.7812 0.53125-0.60547 0.34375-0.90625 0.88281-0.90625 1.6094 0 0.54297 0.20312 0.96875 0.60938 1.2812 0.40625 0.30469 1.1406 0.5625 2.2031 0.78125l2.25 0.45312c2.2695 0.44922 3.8789 1.1406 4.8281 2.0781 0.95703 0.92969 1.4375 2.2461 1.4375 3.9531 0 2.25-0.66797 3.9297-2 5.0312-1.3359 1.0938-3.3711 1.6406-6.1094 1.6406-1.3047 0-2.6055-0.125-3.9062-0.375-1.3047-0.23828-2.6055-0.59766-3.9062-1.0781v-4.4531c1.3008 0.69922 2.5625 1.2266 3.7812 1.5781 1.2188 0.34375 2.3906 0.51562 3.5156 0.51562 1.1562 0 2.0352-0.1875 2.6406-0.5625 0.61328-0.38281 0.92188-0.9375 0.92188-1.6562 0-0.63281-0.21094-1.125-0.625-1.4688-0.41797-0.34375-1.2461-0.65625-2.4844-0.9375l-2.0312-0.4375c-2.043-0.4375-3.5391-1.1328-4.4844-2.0938-0.9375-0.95703-1.4062-2.25-1.4062-3.875 0-2.0312 0.65625-3.5938 1.9688-4.6875s3.1953-1.6406 5.6562-1.6406c1.125 0 2.2734 0.085938 3.4531 0.25 1.1875 0.16797 2.4141 0.42188 3.6875 0.76562z"/>
  </symbol>
  <symbol id="f" overflow="visible">
   <path d="m2.5781-20.406h5.25v20.406h-5.25z"/>
  </symbol>
  <symbol id="u" overflow="visible">
   <path d="m2.5781-20.406h5.25v7.4375l7.5938-7.4375h6.1094l-9.8281 9.6562 10.844 10.75h-6.5938l-8.125-8.0469v8.0469h-5.25z"/>
  </symbol>
  <symbol id="t" overflow="visible">
   <path d="m12.422-21.281v3.2188h-2.7031c-0.6875 0-1.1719 0.125-1.4531 0.375-0.27344 0.25-0.40625 0.6875-0.40625 1.3125v1.0625h4.1875v3.5h-4.1875v11.812h-4.8906v-11.812h-2.4375v-3.5h2.4375v-1.0625c0-1.6641 0.46094-2.8984 1.3906-3.7031 0.92578-0.80078 2.3672-1.2031 4.3281-1.2031z"/>
  </symbol>
  <symbol id="d" overflow="visible">
   <path d="m9.6406-12.188c-1.0859 0-1.9141 0.39062-2.4844 1.1719-0.57422 0.78125-0.85938 1.9062-0.85938 3.375s0.28516 2.5938 0.85938 3.375c0.57031 0.77344 1.3984 1.1562 2.4844 1.1562 1.0625 0 1.875-0.38281 2.4375-1.1562 0.57031-0.78125 0.85938-1.9062 0.85938-3.375s-0.28906-2.5938-0.85938-3.375c-0.5625-0.78125-1.375-1.1719-2.4375-1.1719zm0-3.5c2.6328 0 4.6914 0.71484 6.1719 2.1406 1.4766 1.418 2.2188 3.3867 2.2188 5.9062 0 2.5117-0.74219 4.4805-2.2188 5.9062-1.4805 1.418-3.5391 2.125-6.1719 2.125-2.6484 0-4.7148-0.70703-6.2031-2.125-1.4922-1.4258-2.2344-3.3945-2.2344-5.9062 0-2.5195 0.74219-4.4883 2.2344-5.9062 1.4883-1.4258 3.5547-2.1406 6.2031-2.1406z"/>
  </symbol>
  <symbol id="s" overflow="visible">
   <path d="m16.547-12.766c0.61328-0.94531 1.3477-1.6719 2.2031-2.1719 0.85156-0.5 1.7891-0.75 2.8125-0.75 1.7578 0 3.0977 0.54688 4.0156 1.6406 0.92578 1.0859 1.3906 2.6562 1.3906 4.7188v9.3281h-4.9219v-7.9844-0.35938c0.007813-0.13281 0.015625-0.32031 0.015625-0.5625 0-1.082-0.16406-1.8633-0.48438-2.3438-0.3125-0.48828-0.82422-0.73438-1.5312-0.73438-0.92969 0-1.6484 0.38672-2.1562 1.1562-0.51172 0.76172-0.77344 1.8672-0.78125 3.3125v7.5156h-4.9219v-7.9844c0-1.6953-0.14844-2.7852-0.4375-3.2656-0.29297-0.48828-0.8125-0.73438-1.5625-0.73438-0.9375 0-1.6641 0.38672-2.1719 1.1562-0.51172 0.76172-0.76562 1.8594-0.76562 3.2969v7.5312h-4.9219v-15.312h4.9219v2.2344c0.60156-0.86328 1.2891-1.5156 2.0625-1.9531 0.78125-0.4375 1.6406-0.65625 2.5781-0.65625 1.0625 0 2 0.25781 2.8125 0.76562 0.8125 0.51172 1.4258 1.2305 1.8438 2.1562z"/>
  </symbol>
  <symbol id="r" overflow="visible">
   <path d="m17.75-9.3281v9.3281h-4.9219v-7.1094c0-1.3438-0.03125-2.2656-0.09375-2.7656s-0.16797-0.86719-0.3125-1.1094c-0.1875-0.3125-0.44922-0.55469-0.78125-0.73438-0.32422-0.17578-0.69531-0.26562-1.1094-0.26562-1.0234 0-1.8242 0.39844-2.4062 1.1875-0.58594 0.78125-0.875 1.8711-0.875 3.2656v7.5312h-4.8906v-21.281h4.8906v8.2031c0.73828-0.88281 1.5195-1.5391 2.3438-1.9688 0.83203-0.42578 1.75-0.64062 2.75-0.64062 1.7695 0 3.1133 0.54688 4.0312 1.6406 0.91406 1.0859 1.375 2.6562 1.375 4.7188z"/>
  </symbol>
  <symbol id="q" overflow="visible">
   <path d="m2.5781-20.406h5.875l7.4219 14v-14h4.9844v20.406h-5.875l-7.4219-14v14h-4.9844z"/>
  </symbol>
  <symbol id="p" overflow="visible">
   <path d="m2.1875-5.9688v-9.3438h4.9219v1.5312c0 0.83594-0.007813 1.875-0.015625 3.125-0.011719 1.25-0.015625 2.0859-0.015625 2.5 0 1.2422 0.03125 2.1328 0.09375 2.6719 0.070313 0.54297 0.17969 0.93359 0.32812 1.1719 0.20703 0.32422 0.47266 0.57422 0.79688 0.75 0.32031 0.16797 0.69141 0.25 1.1094 0.25 1.0195 0 1.8203-0.39062 2.4062-1.1719 0.58203-0.78125 0.875-1.8672 0.875-3.2656v-7.5625h4.8906v15.312h-4.8906v-2.2188c-0.74219 0.89844-1.5234 1.5586-2.3438 1.9844-0.82422 0.41406-1.7344 0.625-2.7344 0.625-1.7617 0-3.1055-0.53906-4.0312-1.625-0.92969-1.082-1.3906-2.6602-1.3906-4.7344z"/>
  </symbol>
  <symbol id="o" overflow="visible">
   <path d="m17.75-9.3281v9.3281h-4.9219v-7.1406c0-1.3203-0.03125-2.2344-0.09375-2.7344s-0.16797-0.86719-0.3125-1.1094c-0.1875-0.3125-0.44922-0.55469-0.78125-0.73438-0.32422-0.17578-0.69531-0.26562-1.1094-0.26562-1.0234 0-1.8242 0.39844-2.4062 1.1875-0.58594 0.78125-0.875 1.8711-0.875 3.2656v7.5312h-4.8906v-15.312h4.8906v2.2344c0.73828-0.88281 1.5195-1.5391 2.3438-1.9688 0.83203-0.42578 1.75-0.64062 2.75-0.64062 1.7695 0 3.1133 0.54688 4.0312 1.6406 0.91406 1.0859 1.375 2.6562 1.375 4.7188z"/>
  </symbol>
  <symbol id="n" overflow="visible">
   <path d="m2.5781-20.406h8.7344c2.5938 0 4.582 0.57812 5.9688 1.7344 1.3945 1.1484 2.0938 2.7891 2.0938 4.9219 0 2.1367-0.69922 3.7812-2.0938 4.9375-1.3867 1.1562-3.375 1.7344-5.9688 1.7344h-3.4844v7.0781h-5.25zm5.25 3.8125v5.7031h2.9219c1.0195 0 1.8047-0.25 2.3594-0.75 0.5625-0.5 0.84375-1.2031 0.84375-2.1094 0-0.91406-0.28125-1.6172-0.84375-2.1094-0.55469-0.48828-1.3398-0.73438-2.3594-0.73438z"/>
  </symbol>
  <symbol id="m" overflow="visible">
   <path d="m2.3594-15.312h4.8906v15.031c0 2.0508-0.49609 3.6172-1.4844 4.7031-0.98047 1.082-2.4062 1.625-4.2812 1.625h-2.4219v-3.2188h0.85938c0.92578 0 1.5625-0.21094 1.9062-0.625 0.35156-0.41797 0.53125-1.2461 0.53125-2.4844zm0-5.9688h4.8906v4h-4.8906z"/>
  </symbol>
  <symbol id="l" overflow="visible">
   <path d="m14.719-14.828v3.9844c-0.65625-0.45703-1.3242-0.79688-2-1.0156-0.66797-0.21875-1.3594-0.32812-2.0781-0.32812-1.3672 0-2.4336 0.40234-3.2031 1.2031-0.76172 0.79297-1.1406 1.9062-1.1406 3.3438 0 1.4297 0.37891 2.543 1.1406 3.3438 0.76953 0.79297 1.8359 1.1875 3.2031 1.1875 0.75781 0 1.4844-0.10938 2.1719-0.32812 0.6875-0.22656 1.3203-0.56641 1.9062-1.0156v4c-0.76172 0.28125-1.5391 0.48828-2.3281 0.625-0.78125 0.14453-1.5742 0.21875-2.375 0.21875-2.7617 0-4.9219-0.70703-6.4844-2.125-1.5547-1.4141-2.3281-3.3828-2.3281-5.9062 0-2.5312 0.77344-4.5039 2.3281-5.9219 1.5625-1.4141 3.7227-2.125 6.4844-2.125 0.80078 0 1.5938 0.074219 2.375 0.21875 0.78125 0.13672 1.5547 0.35156 2.3281 0.64062z"/>
  </symbol>
 </defs>
 <g>
  <path d="m503.01 423.62-91.918-31.105c-10.195-3.4453-21.551-1.1797-29.637 5.918l-30.387 26.68c-4.168 3.6602-10.059 4.8828-15.375 3.1836-17.52-5.5898-53.973-17.219-85.383-48.633-31.418-31.418-43.043-67.867-48.633-85.383-1.6953-5.3164-0.47656-11.211 3.1836-15.375l26.68-30.383c7.1016-8.0859 9.3711-19.445 5.918-29.637l-31.105-91.918c-5.625-16.625-19.211-28.902-36.344-32.84-16.977-3.8984-34.383 1.1484-46.566 13.504-41.883 42.488-119.96 160.66 59.145 339.75 85.82 85.824 157.64 112.59 213.86 112.59 61.102 0 103.77-31.633 125.9-53.445 12.359-12.184 17.406-29.59 13.504-46.566-3.9375-17.133-16.211-30.719-32.836-36.344zm9.2695 72.699c-22.902 22.574-61.512 49.379-115.7 49.379-0.35938 0-0.72656 0-1.0898-0.003906-63.004-0.41406-131.23-36.902-202.77-108.45-71.543-71.539-108.03-139.76-108.45-202.77-0.36328-54.762 26.648-93.738 49.375-116.79 6.7344-6.832 15.719-10.52 25.066-10.52 2.6797 0 5.3867 0.30469 8.082 0.92188 12.246 2.8164 21.957 11.586 25.977 23.465l31.105 91.918c1.8164 5.3594 0.62109 11.332-3.1133 15.586l-26.68 30.383c-6.957 7.9258-9.2812 19.109-6.0664 29.188 5.9297 18.594 18.273 57.285 52.152 91.164 33.871 33.875 72.566 46.219 91.164 52.152 10.078 3.2188 21.266 0.89062 29.188-6.0664l30.383-26.68c4.2539-3.7344 10.223-4.9297 15.586-3.1133l91.918 31.105c11.879 4.0195 20.652 13.73 23.465 25.977 2.7812 12.094-0.80469 24.484-9.5977 33.148z"/>
  <path d="m207.84 76.859c1.6875 0 3.3828-0.59375 4.7461-1.8008 3.3398-2.957 6.8008-5.8516 10.277-8.6055 3.1016-2.457 3.6289-6.9648 1.1719-10.066-2.457-3.1016-6.9609-3.6289-10.066-1.1719-3.6797 2.9141-7.3398 5.9766-10.879 9.1094-2.9648 2.6211-3.2422 7.1523-0.61719 10.117 1.4141 1.6016 3.3867 2.418 5.3672 2.418z"/>
  <path d="m586.97 142.22c1.293 2.4102 3.7656 3.7773 6.3203 3.7773 1.1445 0 2.3047-0.27344 3.3828-0.85547 3.4883-1.8711 4.7969-6.2148 2.9219-9.7031-3.8867-7.2383-8.1797-14.379-12.758-21.219-2.2031-3.2891-6.6523-4.168-9.9414-1.9688-3.2891 2.2031-4.1719 6.6523-1.9688 9.9414 4.3242 6.457 8.375 13.195 12.043 20.027z"/>
  <path d="m468.51 33.77c7.1328 3.0469 14.203 6.4805 21.016 10.211 1.0898 0.59766 2.2695 0.87891 3.4336 0.87891 2.5352 0 4.9883-1.3477 6.293-3.7266 1.8984-3.4727 0.625-7.8281-2.8477-9.7266-7.2188-3.9492-14.711-7.5898-22.27-10.816-3.6328-1.5508-7.8477 0.13672-9.4062 3.7773-1.5469 3.6367 0.14453 7.8477 3.7812 9.4023z"/>
  <path d="m377.61 14.352c7.7695 0.14063 15.617 0.66016 23.324 1.543 0.27734 0.03125 0.55469 0.046875 0.82422 0.046875 3.5938 0 6.6914-2.6953 7.1094-6.3516 0.44922-3.9336-2.3711-7.4844-6.3008-7.9375-8.1641-0.9375-16.473-1.4883-24.699-1.6367-3.8633-0.054688-7.2227 3.0781-7.2969 7.0352-0.070313 3.9609 3.082 7.2305 7.0391 7.3008z"/>
  <path d="m616.34 199.48c-3.8789 0.79297-6.3789 4.5781-5.582 8.457 1.5547 7.5977 2.7578 15.367 3.5742 23.098 0.39062 3.6797 3.5 6.4141 7.1172 6.4141 0.25 0 0.50781-0.015624 0.76172-0.039062 3.9375-0.41406 6.7891-3.9453 6.3711-7.8789-0.86719-8.1836-2.1406-16.414-3.7852-24.461-0.79688-3.8867-4.5859-6.3906-8.457-5.5898z"/>
  <path d="m329.8 18.082c0.41016 0 0.82812-0.035156 1.2461-0.10938 7.6484-1.3398 15.449-2.3242 23.191-2.9258 3.9453-0.30469 6.8945-3.7539 6.5898-7.6992-0.30469-3.9453-3.7461-6.9023-7.6992-6.5898-8.1992 0.63672-16.461 1.6797-24.559 3.0977-3.8984 0.68359-6.5039 4.3984-5.8203 8.2969 0.61328 3.4805 3.6367 5.9297 7.0508 5.9297z"/>
  <path d="m597.02 163.32c2.9883 7.1523 5.6641 14.547 7.9492 21.977 0.94922 3.082 3.7812 5.0586 6.8477 5.0586 0.69922 0 1.4102-0.10156 2.1133-0.32031 3.7812-1.1641 5.9062-5.1758 4.7383-8.957-2.4219-7.8672-5.2578-15.703-8.4219-23.281-1.5234-3.6523-5.7266-5.3789-9.375-3.8516-3.6523 1.5273-5.375 5.7227-3.8516 9.375z"/>
  <path d="m424 19.672c7.5938 1.6211 15.199 3.6328 22.598 5.9727 0.72266 0.22656 1.4492 0.33594 2.168 0.33594 3.0391 0 5.8633-1.9531 6.8281-5.0039 1.1953-3.7734-0.89453-7.8008-4.668-8.9961-7.8359-2.4844-15.891-4.6133-23.934-6.3281-3.8672-0.82422-7.6797 1.6406-8.5039 5.5117-0.82422 3.875 1.6406 7.6797 5.5117 8.5078z"/>
  <path d="m566.55 106.04c1.5977 0 3.207-0.53125 4.5391-1.6211 3.0625-2.5078 3.5117-7.0234 1-10.086-5.1992-6.3438-10.777-12.527-16.578-18.379-2.7891-2.8086-7.3242-2.8281-10.133-0.039063-2.8086 2.7891-2.8281 7.3242-0.039062 10.133 5.4844 5.5273 10.754 11.371 15.664 17.367 1.418 1.7305 3.4727 2.625 5.5469 2.625z"/>
  <path d="m587.5 385.18c-3.332-2.1328-7.7656-1.1602-9.8984 2.1758-2.6445 4.1328-5.4531 8.2383-8.3477 12.207-1.8086 2.4805-1.7734 5.7266-0.17969 8.1484-2.75-0.92969-5.8984-0.14063-7.8398 2.2383-2.8008 3.4336-5.75 6.8477-8.7578 10.148-2.668 2.9258-2.457 7.457 0.46875 10.125 1.375 1.2539 3.1016 1.8711 4.8242 1.8711 1.9453 0 3.8828-0.78906 5.2969-2.3398 3.1836-3.4922 6.3008-7.1055 9.2695-10.742 2.0273-2.4844 2.082-5.8984 0.41406-8.4453 0.74609 0.25391 1.5195 0.38281 2.2891 0.38281 2.2109 0 4.3906-1.0195 5.7969-2.9414 3.0664-4.2031 6.0391-8.5547 8.8398-12.934 2.1328-3.3281 1.1562-7.7617-2.1758-9.8945z"/>
  <path d="m629.99 254.23c-0.039062-3.9336-3.2383-7.0977-7.1641-7.0977h-0.070313c-3.957 0.039062-7.1367 3.2773-7.0977 7.2344l0.011719 2.1445c0 7.0586-0.30859 14.195-0.91797 21.215-0.34375 3.9414 2.5781 7.4141 6.5195 7.7578 0.21094 0.019531 0.41797 0.027344 0.625 0.027344 3.6797 0 6.8086-2.8125 7.1328-6.5469 0.64453-7.4297 0.97266-14.984 0.97266-22.457 0-0.75781-0.003906-1.5195-0.011719-2.2773z"/>
  <path d="m608.1 341.74c-3.6875-1.4492-7.8438 0.36328-9.293 4.0469-2.8398 7.2266-6.0703 14.395-9.5938 21.301-1.7969 3.5234-0.39844 7.8398 3.1289 9.6406 1.043 0.53125 2.1562 0.78516 3.25 0.78516 2.6094 0 5.1211-1.4297 6.3906-3.9102 3.7344-7.3164 7.1523-14.91 10.164-22.57 1.4492-3.6836-0.36328-7.8438-4.0469-9.293z"/>
  <path d="m517.52 44.336c-3.2695-2.2266-7.7266-1.3828-9.957 1.8867-2.2266 3.2695-1.3828 7.7305 1.8867 9.957 6.4023 4.3633 12.68 9.0938 18.656 14.07 1.3398 1.1133 2.9648 1.6602 4.582 1.6602 2.0547 0 4.0938-0.87891 5.5117-2.582 2.5312-3.043 2.1211-7.5586-0.92188-10.094-6.3281-5.2656-12.977-10.277-19.758-14.898z"/>
  <path d="m619.97 295.14c-3.8945-0.70703-7.6289 1.8594-8.3438 5.75-1.4062 7.6406-3.1953 15.297-5.3242 22.758-1.0859 3.8047 1.1172 7.7734 4.9258 8.8594 0.65625 0.1875 1.3203 0.27734 1.9688 0.27734 3.1211 0 5.9883-2.0547 6.8867-5.2031 2.2539-7.8984 4.1523-16.004 5.6406-24.098 0.71484-3.8906-1.8594-7.6289-5.7539-8.3438z"/>
  <path d="m283.48 30.902c0.85547 0 1.7227-0.15234 2.5664-0.47656 7.2461-2.7852 14.715-5.2422 22.199-7.3125 3.8125-1.0547 6.0508-5.0039 4.9961-8.8164-1.0547-3.8125-5.0039-6.043-8.8164-4.9961-7.9258 2.1914-15.836 4.7969-23.516 7.7461-3.6953 1.418-5.5391 5.5664-4.1211 9.2578 1.0938 2.8477 3.8086 4.5977 6.6914 4.5977z"/>
  <path d="m240.49 52.406c1.3008 0 2.6211-0.35547 3.8047-1.0977 6.5781-4.1328 13.43-7.9883 20.367-11.457 3.5391-1.7695 4.9766-6.0742 3.2031-9.6133-1.7695-3.5391-6.0781-4.9766-9.6133-3.2031-7.3516 3.6758-14.613 7.7617-21.582 12.141-3.3516 2.1055-4.3633 6.5273-2.2578 9.8789 1.3633 2.1641 3.6953 3.3516 6.0781 3.3516z"/>
  <path d="m310.11 166.93c-9.4961 4.5508-16.953 10.852-22.359 18.898l23.352 15.039c3.2969-4.6172 7.3867-8.0781 12.27-10.387 4.8789-2.3086 10.355-3.4648 16.426-3.4648 7.2539 0 12.762 1.4844 16.52 4.4531 3.7617 2.9688 5.6406 7.2227 5.6406 12.762 0 3.8281-0.99219 7.6875-2.9688 11.574-1.9766 3.8906-5.8047 8.543-11.477 13.949l-53.43 50.457v20.777h104.68l-0.003906-26.117h-59.562l31.855-30.078c9.1055-8.4414 15.238-15.961 18.402-22.559 3.168-6.5938 4.75-13.652 4.75-21.172 0-8.3125-2.1445-15.535-6.4297-21.668-4.2891-6.1328-10.289-10.883-18.008-14.246-7.7188-3.3633-16.723-5.0469-27.012-5.0469-12.266 0-23.148 2.2773-32.645 6.8281z"/>
  <path d="m473.75 162.48-65.297 87.855v21.57h74.598v29.09h31.266v-29.09h22.555v-26.121h-22.555v-25.922h-30.277v25.922h-37.199l60.551-83.305z"/>
  <use x="70" y="644" xlink:href="#y"/>
  <use x="90.550781" y="644" xlink:href="#c"/>
  <use x="104.359375" y="644" xlink:href="#a"/>
  <use x="123.347656" y="644" xlink:href="#k"/>
  <use x="142.242188" y="644" xlink:href="#b"/>
  <use x="155.628906" y="644" xlink:href="#a"/>
  <use x="174.617188" y="644" xlink:href="#j"/>
  <use x="204.410156" y="644" xlink:href="#i"/>
  <use x="224.453125" y="644" xlink:href="#h"/>
  <use x="252.453125" y="644" xlink:href="#e"/>
  <use x="274.121094" y="644" xlink:href="#x"/>
  <use x="297.554688" y="644" xlink:href="#w"/>
  <use x="325.417969" y="644" xlink:href="#e"/>
  <use x="347.085938" y="644" xlink:href="#g"/>
  <use x="380.078125" y="644" xlink:href="#v"/>
  <use x="400.242188" y="644" xlink:href="#f"/>
  <use x="410.664062" y="644" xlink:href="#g"/>
  <use x="433.90625" y="644" xlink:href="#f"/>
  <use x="444.320312" y="644" xlink:href="#u"/>
  <use x="70" y="672" xlink:href="#t"/>
  <use x="82.183594" y="672" xlink:href="#c"/>
  <use x="95.992188" y="672" xlink:href="#d"/>
  <use x="115.226562" y="672" xlink:href="#s"/>
  <use x="154.152344" y="672" xlink:href="#b"/>
  <use x="167.535156" y="672" xlink:href="#r"/>
  <use x="187.46875" y="672" xlink:href="#a"/>
  <use x="216.207031" y="672" xlink:href="#q"/>
  <use x="239.640625" y="672" xlink:href="#d"/>
  <use x="258.878906" y="672" xlink:href="#p"/>
  <use x="278.8125" y="672" xlink:href="#o"/>
  <use x="308.492188" y="672" xlink:href="#n"/>
  <use x="329.015625" y="672" xlink:href="#c"/>
  <use x="342.820312" y="672" xlink:href="#d"/>
  <use x="362.058594" y="672" xlink:href="#m"/>
  <use x="371.65625" y="672" xlink:href="#a"/>
  <use x="390.648438" y="672" xlink:href="#l"/>
  <use x="407.242188" y="672" xlink:href="#b"/>
 </g>
</svg>
