<svg id="Capa_1" data-name="Capa 1" xmlns="http://www.w3.org/2000/svg" viewBox="0 0 123.28 159.89"><defs><style>.cls-1{fill:#c7935b;}</style></defs><path class="cls-1" d="M115.84,52.29a1.45,1.45,0,0,0-.2-.34v-.07a1.42,1.42,0,0,0-.3-.25h-.08l-53-25.79a1.31,1.31,0,0,0-1.19,0l-53,25.73H8a1.81,1.81,0,0,0-.3.25v.07a1.45,1.45,0,0,0-.2.34v.09a1.41,1.41,0,0,0-.07.41v53A1.37,1.37,0,0,0,8.07,107L61,134.1h0a1.19,1.19,0,0,0,1.13,0h.06l53-27.15a1.37,1.37,0,0,0,.73-1.21V52.79a1.4,1.4,0,0,0-.06-.41v-.09ZM61.64,78.42,46,70.38,95.8,45.15l15.75,7.67ZM28.89,64.67l13,6.7v20.9l-13-6.82Zm1.63-2.21L80,37.43l12.78,6.22L43,68.85ZM61.64,28.51l15.25,7.43-49.35,25L11.73,52.82ZM10.05,55l16.12,8.27v23a1.34,1.34,0,0,0,.73,1.2l15.77,8.24a1.4,1.4,0,0,0,.63.16,1.36,1.36,0,0,0,1.36-1.36h0V72.76l15.62,8v49.9L10.05,104.91Zm103.18,49.9L63,130.67V80.78L113.23,55Z"/></svg>