<svg id="Capa_2" data-name="Capa 2" xmlns="http://www.w3.org/2000/svg" viewBox="0 0 123.28 159.89"><defs><style>.cls-1,.cls-2{fill:#c7935b;}.cls-1{fill-rule:evenodd;}</style></defs><path class="cls-1" d="M61.64,132.44a52.5,52.5,0,1,0-52.5-52.5V80a52.5,52.5,0,0,0,52.5,52.49Zm0,3.75A56.25,56.25,0,1,0,5.39,79.94h0A56.24,56.24,0,0,0,61.64,136.19Z"/><path class="cls-2" d="M59.76,40.57a1.88,1.88,0,0,1,3.75,0V81.82a1.88,1.88,0,0,1-3.75.27,1.22,1.22,0,0,1,0-.27Z"/><path class="cls-2" d="M91.64,80a1.88,1.88,0,0,1,0,3.75h-30A1.88,1.88,0,1,1,61.37,80a1.22,1.22,0,0,1,.27,0Z"/></svg>