<svg id="Capa_1" data-name="Capa 1" xmlns="http://www.w3.org/2000/svg" viewBox="0 0 413 520"><defs><style>.cls-1{fill:#575757;}</style></defs><path class="cls-1" d="M322.88,196.39a111,111,0,1,0-32.51,78.37,110.9,110.9,0,0,0,32.51-78.37ZM212,292a95.75,95.75,0,1,1,67.58-28A95.66,95.66,0,0,1,212,292Zm50.36-122.23-49.9,61.84a7.74,7.74,0,0,1-5.19,2.8c-.25,0-.51,0-.76,0h0a7.64,7.64,0,0,1-4.88-1.77l-32.55-27.12a7.64,7.64,0,1,1,9.78-11.73L205.45,216l45-55.81h0a7.64,7.64,0,0,1,11.88,9.59ZM397,473.86,350.21,321a25.22,25.22,0,0,0,8.78-6.82c6-7.41,6.12-17.41,6.26-26.24a41.66,41.66,0,0,1,2-15.59,42.61,42.61,0,0,1,11-11.13c7-5.7,14.93-12.15,17.17-21.68s-1.91-18.81-5.55-27.09h0a46.27,46.27,0,0,1-5-16.09,46.27,46.27,0,0,1,5-16.09c3.64-8.29,7.76-17.67,5.55-27.09s-10.16-16-17.16-21.69h0a42.19,42.19,0,0,1-11-11.14,41.61,41.61,0,0,1-2-15.59C365.11,96,365,86,359,78.55s-15.68-9.73-24.26-11.76h0a41.06,41.06,0,0,1-14.66-5.25,41.27,41.27,0,0,1-8.3-13.12c-3.89-8-8.3-17-16.93-21.28s-18.48-2.21-27.18-.45h0a43,43,0,0,1-16,1.42A43.84,43.84,0,0,1,237.9,19.9C230.51,14.33,222.12,8,212,8s-18.52,6.33-25.92,11.92a43.88,43.88,0,0,1-13.71,8.24,43.05,43.05,0,0,1-16.05-1.42c-8.72-1.76-18.6-3.76-27.18.45s-13,13.28-16.93,21.28h0a41.37,41.37,0,0,1-8.29,13.07,41.1,41.1,0,0,1-14.64,5.25C80.7,68.83,71,71.13,65,78.55S58.9,96,58.76,104.8h0a41.82,41.82,0,0,1-2,15.59,42.19,42.19,0,0,1-11,11.14c-7,5.69-14.93,12.14-17.17,21.69s1.92,18.8,5.55,27.09h0a46.27,46.27,0,0,1,5,16.09,46.27,46.27,0,0,1-5,16.09c-3.63,8.28-7.76,17.67-5.55,27.1s10.17,16,17.17,21.67h0a42.34,42.34,0,0,1,11,11.14,41.51,41.51,0,0,1,2,15.61c.14,8.82.3,18.82,6.26,26.24A25.46,25.46,0,0,0,73.78,321L27,473.87h0a7.64,7.64,0,0,0,10.89,8.95l53.54-28.46,28.46,53.55h0a7.63,7.63,0,0,0,6.72,4.06,4.53,4.53,0,0,0,.73,0,7.61,7.61,0,0,0,6.57-5.37l42.88-140.11h0a84,84,0,0,1,9.26,6.38c7.39,5.6,15.78,11.92,25.91,11.92s18.52-6.33,25.92-11.92h0a84.87,84.87,0,0,1,9.25-6.38L290,506.58h0a7.63,7.63,0,0,0,6.57,5.37c.25,0,.5,0,.74,0h0a7.66,7.66,0,0,0,6.73-4.06l28.46-53.54,53.58,28.51a7.64,7.64,0,0,0,10.89-9ZM124.75,484.51l-23.39-44A7.64,7.64,0,0,0,91,437.33L47,460.72l41.29-135,1,.22h0a41.42,41.42,0,0,1,14.64,5.25,41.63,41.63,0,0,1,8.31,13.13c3.88,8,8.3,17,16.92,21.28s18.48,2.21,27.18.45c1.68-.33,3.32-.67,5-.95Zm104-123.83c-6,4.54-11.68,8.83-16.72,8.83s-10.69-4.29-16.71-8.83a54.64,54.64,0,0,0-19.42-10.9,27.63,27.63,0,0,0-3-.51c-.13,0-.26,0-.39-.06h0a32.29,32.29,0,0,0-3.68-.2,80.26,80.26,0,0,0-15.5,2.09c-6.64,1.35-13.51,2.74-17.43.81s-7-8.18-9.92-14.23h0a51,51,0,0,0-12.48-18.32,50.71,50.71,0,0,0-20.67-8.2c-6.5-1.54-13.21-3.13-15.88-6.46s-2.8-10.25-2.89-16.94h0a51.78,51.78,0,0,0-3.57-22.06,52.19,52.19,0,0,0-15.07-16.27c-5.35-4.35-10.88-8.85-11.93-13.32s1.86-11.07,4.66-17.46a56.45,56.45,0,0,0,6.33-22.24,56.45,56.45,0,0,0-6.33-22.23c-2.8-6.39-5.71-13-4.66-17.46s6.58-9,11.93-13.32h0a52.09,52.09,0,0,0,15.07-16.24A51.69,51.69,0,0,0,74,105.09c.1-6.68.21-13.59,2.89-16.93s9.39-4.92,15.88-6.46a50.73,50.73,0,0,0,20.67-8.21,51.07,51.07,0,0,0,12.48-18.34c2.95-6,6-12.32,9.92-14.23s10.79-.53,17.43.81a53.27,53.27,0,0,0,22.57,1.32,54.33,54.33,0,0,0,19.42-11c6-4.51,11.67-8.81,16.71-8.81s10.7,4.29,16.72,8.83A54.17,54.17,0,0,0,248.13,43a53.06,53.06,0,0,0,22.56-1.31c6.65-1.35,13.51-2.74,17.44-.82s7,8.18,9.92,14.24a51.08,51.08,0,0,0,12.5,18.34,50.75,50.75,0,0,0,20.68,8.2c6.49,1.54,13.2,3.13,15.87,6.47s2.8,10.24,2.9,16.93h0a51.56,51.56,0,0,0,3.57,22.07,52.17,52.17,0,0,0,15.07,16.23c5.35,4.35,10.88,8.86,11.93,13.33s-1.86,11.06-4.66,17.46h0a56.53,56.53,0,0,0-6.33,22.23,56.36,56.36,0,0,0,6.33,22.23c2.8,6.39,5.71,13,4.67,17.46s-6.59,9-11.94,13.32h0a52.29,52.29,0,0,0-15.06,16.24A51.54,51.54,0,0,0,350,287.69c-.1,6.69-.22,13.6-2.89,16.93s-9.39,4.93-15.88,6.47h0a51,51,0,0,0-20.68,8.27,51,51,0,0,0-12.47,18.34c-3,6.05-6,12.32-9.93,14.23s-10.78.53-17.42-.81h0a63.49,63.49,0,0,0-19.12-1.89h-.27a28.59,28.59,0,0,0-3.18.56,54.42,54.42,0,0,0-19.45,10.89ZM333,437.33a7.64,7.64,0,0,0-10.33,3.16l-23.39,44L262.72,365.11c1.64.29,3.3.62,4.95,1,8.72,1.76,18.61,3.76,27.19-.45s13-13.28,16.93-21.28h0a41.36,41.36,0,0,1,8.3-13.1A41,41,0,0,1,334.72,326l1-.22,41.28,135Z"/></svg>