<svg id="Capa_1" data-name="Capa 1" xmlns="http://www.w3.org/2000/svg" viewBox="0 0 179.96 69.76"><defs><style>.cls-1{fill:#fff;}</style></defs><g id="Capa_2" data-name="Capa 2"><g id="Capa_1-2" data-name="Capa 1-2"><path class="cls-1" d="M86.2,26.23c-6.58,0-12.28-5.26-12.28-13.07v-.1C73.92,5.8,79,0,85.8,0c7,0,11.5,5.8,11.5,13a1.21,1.21,0,0,1-1.18,1.12H76.47c.44,6.24,4.91,9.88,9.82,9.88a11.13,11.13,0,0,0,8.11-3.44,1,1,0,0,1,.78-.34,1.15,1.15,0,0,1,1.18,1.12h0a1.19,1.19,0,0,1-.39.84A12.75,12.75,0,0,1,86.2,26.23Zm8.49-14.3c-.34-5-3.24-9.72-9-9.72-5,0-8.79,4.18-9.23,9.72Z"/><path class="cls-1" d="M102.25,18.37v-.1c0-5.21,4.47-8.15,11-8.15a29.84,29.84,0,0,1,8.3,1.08V10.12c0-5.06-3.09-7.66-8.25-7.66a16,16,0,0,0-7.12,1.67,1.44,1.44,0,0,1-.54.14,1.19,1.19,0,0,1-1.13-1.13,1.22,1.22,0,0,1,.69-1.08A19.36,19.36,0,0,1,113.4.2c3.39,0,6.09.93,7.91,2.75A9.51,9.51,0,0,1,123.86,10V24.61a1.18,1.18,0,1,1-2.36,0V21.46a11.4,11.4,0,0,1-9.57,4.77C107.26,26.23,102.25,23.57,102.25,18.37Zm19.3-2.11V13.41a33.32,33.32,0,0,0-8.49-1.13c-5.31,0-8.25,2.36-8.25,5.84v.1c0,3.63,3.43,5.75,7.26,5.75C117.18,24,121.55,20.82,121.55,16.26Z"/><path class="cls-1" d="M130.88,22.89a1.31,1.31,0,0,1-.44-.94,1.2,1.2,0,0,1,1.18-1.18,1.4,1.4,0,0,1,.79.25,14,14,0,0,0,8.34,2.85c3.39,0,6-1.87,6-4.77V19c0-3-3.14-4-6.63-5-4.07-1.18-8.59-2.41-8.59-6.88V7c0-4,3.39-6.92,8.25-6.92a17,17,0,0,1,8.1,2.26,1.27,1.27,0,0,1,.64,1.08,1.2,1.2,0,0,1-1.18,1.18,1.26,1.26,0,0,1-.68-.2,13.86,13.86,0,0,0-7-2.06c-3.44,0-5.69,1.86-5.69,4.37v.1c0,2.8,3.38,3.83,7,4.86,4,1.13,8.25,2.6,8.25,7v.1c0,4.47-3.83,7.32-8.64,7.32A17.33,17.33,0,0,1,130.88,22.89Z"/><path class="cls-1" d="M154.94,32.86a1.06,1.06,0,0,1-.69-1,1.12,1.12,0,0,1,1.11-1.13h0a2.64,2.64,0,0,1,.78.2,8.43,8.43,0,0,0,3.19.49c2.75,0,4.42-1.82,6-5.55l.15-.34L154.35,2.36a2.07,2.07,0,0,1-.19-.74A1.23,1.23,0,0,1,155.39.39h0c.74,0,1,.45,1.28,1l10,21.6,8.74-21.7a1.23,1.23,0,0,1,2.41.32v0a1.43,1.43,0,0,1-.15.64L167.56,26.52c-2.21,5.26-4.76,7.12-8.34,7.12A11.63,11.63,0,0,1,154.94,32.86Z"/><path class="cls-1" d="M77.22,59.87,71.36,43a5.87,5.87,0,0,1-.31-1.66,3.13,3.13,0,0,1,3.18-3.08h.08a3.39,3.39,0,0,1,3.31,2.64L81.29,53l3.76-12.1a3.59,3.59,0,0,1,3.49-2.73h.4a3.57,3.57,0,0,1,3.49,2.73l3.8,12.17L100,40.81a3.34,3.34,0,0,1,3.27-2.59,3.11,3.11,0,0,1,3.18,3v.11a5.94,5.94,0,0,1-.23,1.39l-6,17.13a3.85,3.85,0,0,1-3.76,3h-.22A3.75,3.75,0,0,1,92.52,60l-3.8-12.08L84.87,60a3.74,3.74,0,0,1-3.67,2.9H81C79.32,62.91,77.94,62,77.22,59.87Z"/><path class="cls-1" d="M109.13,55.58v-.09c0-5.24,4-7.65,9.66-7.65a17.19,17.19,0,0,1,5.86,1v-.4c0-2.82-1.74-4.39-5.14-4.39a15.58,15.58,0,0,0-4.7.67,2.82,2.82,0,0,1-3.63-1.65,2.64,2.64,0,0,1-.18-1,2.82,2.82,0,0,1,1.84-2.64,20.76,20.76,0,0,1,7.65-1.25c3.71,0,6.4,1,8.1,2.68s2.59,4.43,2.59,7.65V59.47a3.26,3.26,0,0,1-3.26,3.26h0A3,3,0,0,1,124.62,60a.28.28,0,0,1,0-.09v-.05a9.22,9.22,0,0,1-7.25,3C112.84,62.91,109.13,60.32,109.13,55.58ZM124.74,54V52.8a10.64,10.64,0,0,0-4.34-.89c-2.91,0-4.7,1.16-4.7,3.31v.09c0,1.83,1.53,2.91,3.72,2.91C122.59,58.22,124.74,56.47,124.74,54Z"/><path class="cls-1" d="M137.85,69.13a2.94,2.94,0,0,1-2.14-2.82,2.71,2.71,0,0,1,2.65-2.77h0a3.06,3.06,0,0,1,1.12.18,4.37,4.37,0,0,0,1.43.27,2.23,2.23,0,0,0,2.42-1.43l.22-.54-8.19-19a5,5,0,0,1-.35-1.57,3.21,3.21,0,0,1,3.16-3.26h.19a3.28,3.28,0,0,1,3.27,2.55l5.19,14,5-13.92a3.43,3.43,0,0,1,3.26-2.59,3.16,3.16,0,0,1,3.23,3.09v0A4.85,4.85,0,0,1,158,43l-8.36,20.09c-2,4.87-4,6.71-8.1,6.71A10.34,10.34,0,0,1,137.85,69.13Z"/><path class="cls-1" d="M161.75,60.18a2.69,2.69,0,0,1,2.71-4.65A12.64,12.64,0,0,0,171,57.68c2,0,2.86-.72,2.86-1.79V55.8c0-1.48-2.33-2-5-2.77-3.36-1-7.16-2.55-7.16-7.21v-.09c0-4.87,3.93-7.6,8.77-7.6A17,17,0,0,1,177.9,40a2.77,2.77,0,0,1,1.61,2.55,2.67,2.67,0,0,1-2.65,2.69h-.08a2.38,2.38,0,0,1-1.25-.32,12.77,12.77,0,0,0-5.19-1.52c-1.65,0-2.5.72-2.5,1.66v.09c0,1.34,2.28,2,4.87,2.86,3.36,1.12,7.25,2.73,7.25,7.11v.09c0,5.33-4,7.74-9.17,7.74A16.7,16.7,0,0,1,161.75,60.18Z"/><path class="cls-1" d="M49,30.82,29.77,11.56c-3.24-3.25-2.62-8.13,1.3-10a5.74,5.74,0,0,1,6.35.76,11,11,0,0,1,1,.93L61.15,26c3.15,3.15,3.15,6.48,0,9.63l-23,23a5.79,5.79,0,0,1-6.88,1.51,5.93,5.93,0,0,1-3.08-7.8,4.89,4.89,0,0,1,.37-.72,8,8,0,0,1,1.21-1.51L48.87,31a1.64,1.64,0,0,0,.14-.22"/><path class="cls-1" d="M21.42,30.93,2.15,11.63A6.11,6.11,0,0,1,.21,5.48,5.92,5.92,0,0,1,7.4,1.17,5.85,5.85,0,0,1,10.13,2.7c2.16,2.09,4.25,4.24,6.37,6.36L33.69,26.24c2.83,2.84,2.84,6.32,0,9.14L10.38,58.72A5.73,5.73,0,0,1,5.14,60.6a5.62,5.62,0,0,1-4.8-4A5.9,5.9,0,0,1,1.9,50.32q9.57-9.59,19.17-19.16a1.41,1.41,0,0,1,.35-.23"/></g></g></svg>