<svg id="Capa_1" data-name="Capa 1" xmlns="http://www.w3.org/2000/svg" viewBox="0 0 578 568"><defs><style>.cls-1{fill:#575757;}</style></defs><path class="cls-1" d="M445,423.62l-91.92-31.11a30.35,30.35,0,0,0-29.63,5.92l-30.39,26.68a16,16,0,0,1-15.38,3.19c-17.52-5.59-54-17.22-85.38-48.64s-43-67.86-48.63-85.38a16,16,0,0,1,3.18-15.37l26.68-30.39a30.3,30.3,0,0,0,5.92-29.63L148.35,127a50,50,0,0,0-82.91-19.34c-41.88,42.49-120,160.66,59.15,339.75C210.41,533.21,282.23,560,338.45,560c61.1,0,103.77-31.63,125.9-53.44A50.05,50.05,0,0,0,445,423.62Zm9.27,72.7c-22.9,22.57-61.51,49.38-115.7,49.38h-1.09c-63-.41-131.23-36.9-202.77-108.45S26.69,297.48,26.27,234.47c-.36-54.76,26.65-93.73,49.37-116.79a35.08,35.08,0,0,1,25.07-10.52,36.06,36.06,0,0,1,34.06,24.39l31.1,91.92a15.9,15.9,0,0,1-3.11,15.58l-26.68,30.39A30.45,30.45,0,0,0,130,298.63c5.93,18.59,18.28,57.28,52.16,91.16s72.56,46.22,91.16,52.15a30.44,30.44,0,0,0,29.19-6.06L332.9,409.2a16,16,0,0,1,15.59-3.12l91.92,31.11a35.67,35.67,0,0,1,23.46,26,35.13,35.13,0,0,1-9.6,33.15Z"/><path class="cls-1" d="M149.84,76.86a7.14,7.14,0,0,0,4.75-1.8c3.34-3,6.8-5.85,10.27-8.61A7.17,7.17,0,1,0,156,55.21c-3.68,2.92-7.34,6-10.88,9.11a7.17,7.17,0,0,0,4.75,12.54Z"/><path class="cls-1" d="M529,142.22a7.16,7.16,0,0,0,12.62-6.78c-3.88-7.24-8.17-14.38-12.75-21.22a7.17,7.17,0,0,0-11.91,8c4.32,6.46,8.37,13.2,12,20Z"/><path class="cls-1" d="M410.51,33.77c7.13,3,14.2,6.48,21,10.21a7.09,7.09,0,0,0,3.43.88,7.16,7.16,0,0,0,3.44-13.45c-7.21-3.95-14.71-7.59-22.27-10.82a7.16,7.16,0,0,0-5.62,13.18Z"/><path class="cls-1" d="M319.61,14.35c7.77.14,15.62.66,23.32,1.55a7.81,7.81,0,0,0,.83,0,7.17,7.17,0,0,0,.81-14.29C336.4.72,328.09.16,319.87,0a7.23,7.23,0,0,0-7.3,7,7.17,7.17,0,0,0,7,7.3Z"/><path class="cls-1" d="M558.34,199.48a7.16,7.16,0,0,0-5.58,8.46c1.55,7.59,2.76,15.36,3.57,23.1a7.17,7.17,0,0,0,7.12,6.41c.25,0,.51,0,.76,0a7.16,7.16,0,0,0,6.37-7.88c-.86-8.18-2.14-16.41-3.78-24.46a7.17,7.17,0,0,0-8.46-5.59Z"/><path class="cls-1" d="M271.8,18.08a6.67,6.67,0,0,0,1.25-.11c7.64-1.34,15.45-2.32,23.19-2.92A7.17,7.17,0,0,0,295.13.76c-8.2.63-16.46,1.68-24.56,3.1a7.16,7.16,0,0,0,1.23,14.22Z"/><path class="cls-1" d="M539,163.32c3,7.15,5.66,14.55,8,22a7.17,7.17,0,0,0,6.85,5.06,7.35,7.35,0,0,0,2.11-.32,7.17,7.17,0,0,0,4.74-9c-2.42-7.87-5.26-15.7-8.42-23.28A7.17,7.17,0,0,0,539,163.32Z"/><path class="cls-1" d="M366,19.67c7.59,1.62,15.2,3.63,22.6,6A7.16,7.16,0,0,0,392.93,12C385.09,9.5,377,7.37,369,5.65a7.17,7.17,0,0,0-3,14Z"/><path class="cls-1" d="M508.55,106a7.16,7.16,0,0,0,5.54-11.71C508.89,88,503.31,81.81,497.51,76a7.17,7.17,0,1,0-10.17,10.1c5.48,5.53,10.75,11.37,15.66,17.36a7.14,7.14,0,0,0,5.55,2.63Z"/><path class="cls-1" d="M529.5,385.18a7.17,7.17,0,0,0-9.9,2.18c-2.64,4.13-5.45,8.23-8.35,12.2a7.17,7.17,0,0,0-.18,8.15,7.15,7.15,0,0,0-7.84,2.24c-2.8,3.43-5.75,6.85-8.75,10.15a7.16,7.16,0,1,0,10.59,9.65c3.18-3.49,6.3-7.1,9.27-10.74a7.14,7.14,0,0,0,.41-8.44,7.17,7.17,0,0,0,8.09-2.56c3.06-4.21,6-8.56,8.84-12.94a7.17,7.17,0,0,0-2.18-9.89Z"/><path class="cls-1" d="M572,254.23a7.17,7.17,0,0,0-7.16-7.1h-.07a7.17,7.17,0,0,0-7.1,7.24v2.14c0,7.06-.31,14.2-.92,21.22a7.16,7.16,0,0,0,6.52,7.75l.63,0A7.16,7.16,0,0,0,571,279c.64-7.43,1-15,1-22.45,0-.76,0-1.52,0-2.28Z"/><path class="cls-1" d="M550.1,341.74a7.16,7.16,0,0,0-9.29,4.05c-2.84,7.22-6.07,14.39-9.6,21.3A7.17,7.17,0,0,0,544,373.6c3.74-7.31,7.15-14.91,10.17-22.57a7.17,7.17,0,0,0-4-9.29Z"/><path class="cls-1" d="M459.52,44.34a7.16,7.16,0,1,0-8.07,11.84c6.4,4.36,12.68,9.09,18.66,14.07a7.17,7.17,0,0,0,9.17-11C473,54,466.3,49,459.52,44.34Z"/><path class="cls-1" d="M562,295.14a7.17,7.17,0,0,0-8.34,5.75c-1.41,7.64-3.2,15.3-5.33,22.76a7.18,7.18,0,0,0,4.93,8.86,7.42,7.42,0,0,0,2,.27,7.16,7.16,0,0,0,6.88-5.2c2.26-7.9,4.16-16,5.64-24.1a7.16,7.16,0,0,0-5.75-8.34Z"/><path class="cls-1" d="M225.48,30.9a7.25,7.25,0,0,0,2.57-.47c7.24-2.79,14.71-5.25,22.2-7.32A7.16,7.16,0,0,0,246.43,9.3c-7.93,2.19-15.84,4.8-23.52,7.75a7.16,7.16,0,0,0,2.57,13.85Z"/><path class="cls-1" d="M182.49,52.41a7.15,7.15,0,0,0,3.8-1.1c6.58-4.13,13.43-8,20.37-11.46A7.17,7.17,0,0,0,200.25,27c-7.35,3.68-14.61,7.77-21.58,12.15a7.16,7.16,0,0,0,3.82,13.23Z"/><path class="cls-1" d="M252.11,166.93a54.75,54.75,0,0,0-22.36,18.9l23.35,15a31.47,31.47,0,0,1,12.27-10.39A37.94,37.94,0,0,1,281.8,187q10.88,0,16.52,4.45T304,204.23a25.29,25.29,0,0,1-3,11.57q-3,5.83-11.48,13.95l-53.43,50.46V301H340.76V274.87H281.2l31.85-30.08q13.67-12.66,18.4-22.56a48.21,48.21,0,0,0,4.75-21.17,36.93,36.93,0,0,0-6.42-21.67,41.63,41.63,0,0,0-18-14.24q-11.58-5.06-27-5.05-18.4,0-32.65,6.83Z"/><path class="cls-1" d="M415.75,162.48l-65.3,87.85V271.9h74.6V301h31.27V271.9h22.55V245.78H456.32V219.86H426v25.92h-37.2l60.55-83.3Z"/></svg>