<svg id="Capa_1" data-name="Capa 1" xmlns="http://www.w3.org/2000/svg" viewBox="0 0 582 577"><defs><style>.cls-1{fill:#575757;}</style></defs><path class="cls-1" d="M476.85,490.54H105.15V16.38H476.83V490.54ZM120.52,475.17H461.46V31.75H120.52Z"/><path class="cls-1" d="M163.2,24.09h15.37V482.86H163.2Z"/><path class="cls-1" d="M293.56,560.62l-38.42-38.43-38.42,38.43V475.18h76.84Zm-38.42-60.16,23.06,23.06v-33H232.09v33Z"/><path class="cls-1" d="M370.35,259.45H252.83V198.68a38.09,38.09,0,1,1,22.24-72.82,47.73,47.73,0,0,1,91.19,2.54,37.18,37.18,0,0,1,4.11,72.52v58.53ZM268.2,244.08H355V187.43l7.09-.56a21.84,21.84,0,0,0-1.76-43.62h-6.67l-1.32-6.59a32.36,32.36,0,0,0-64.23,1.26L286.77,151,276,143.42a22.7,22.7,0,1,0-14.88,41.17l7.08.55v58.94Z"/><path class="cls-1" d="M260.52,223.59H362.67V239H260.52Z"/></svg>