<svg id="Capa_1" data-name="Capa 1" xmlns="http://www.w3.org/2000/svg" viewBox="0 0 582 577"><defs><style>.cls-1{fill:#575757;}</style></defs><path class="cls-1" d="M376.31,509.53A17.34,17.34,0,1,1,359,492.18a17.33,17.33,0,0,1,17.34,17.35Zm16.38-298.86c7.64,2.78,15.3,5.52,22.75,8.74-12.08-79.71-81-141-164-141-91.54,0-166,74.47-166,166S168,432.66,291.7,405.29V384C183.22,413.07,106,324.57,106,244.39S171.23,99,251.4,99c68.56,0,126,47.75,141.3,111.69ZM251.4,177a67.32,67.32,0,0,1,59.34,35.71A66.41,66.41,0,0,1,330.89,207a87.89,87.89,0,0,0-167.45,37.42c0,47.56,42,93.6,97.64,87.27a57.59,57.59,0,0,1-3.66-20.27c-43.4,2.27-73.38-30.1-73.38-67A67.43,67.43,0,0,1,251.4,177Zm209.71,60.63a188,188,0,0,0-1.78-22l33.05-29.84a10.28,10.28,0,0,0,3-10.46,252.9,252.9,0,0,0-22.73-54.67,10.53,10.53,0,0,0-9.47-5.24h0l-44.49,2.28c-6.5-8.38-21.54-26.42-40.58-40.69l2.26-44.37a10.34,10.34,0,0,0-5.24-9.54A252,252,0,0,0,320.46.38a10.44,10.44,0,0,0-10.46,3l-29.79,33a218,218,0,0,0-57.57.07L192.79,3.39a10.4,10.4,0,0,0-10.45-3A252.27,252.27,0,0,0,127.66,23.1a10.2,10.2,0,0,0-5.24,9.49L124.69,77a229.73,229.73,0,0,0-40.53,40.69l-45-2.29a10.36,10.36,0,0,0-9,5.26A252,252,0,0,0,7.38,175.33a10.23,10.23,0,0,0,3,10.44l33,29.83a219.57,219.57,0,0,0,.07,57.52L10.41,303a10.2,10.2,0,0,0-3,10.44,252.41,252.41,0,0,0,22.71,54.68,10.81,10.81,0,0,0,9.51,5.25L84.2,371.1c6.87,8.64,22.68,27.41,40.5,40.72l-2.27,44.34a10.22,10.22,0,0,0,5.24,9.52c17.33,9.72,48.11,22.1,57.48,23.11,2.89.31,5.69-1.24,7.64-3.4l29.82-33c9.28,1.27,34,3.32,57.51-.07l12.65,14V435.58A10.52,10.52,0,0,0,284,431c-34.83,4.74-55.87,1.72-63.37.2a10.33,10.33,0,0,0-9.61,3.21l-29.2,32.35a230.89,230.89,0,0,1-38.52-16l2.22-43.52a10.35,10.35,0,0,0-4.53-9.06c-21.81-14.69-42.83-42.61-43.69-43.76a10.58,10.58,0,0,0-8.77-4.16h0l-43.48,2.22a231.31,231.31,0,0,1-16-38.52l32.4-29.25a10.29,10.29,0,0,0,3.25-9.37,196.72,196.72,0,0,1-.09-61.67,10.36,10.36,0,0,0-3.21-9.6L29,174.84a232,232,0,0,1,16-38.52l44,2.23a10.33,10.33,0,0,0,8.3-4.18c20.71-28.08,43.41-43.63,43.63-43.78a10.34,10.34,0,0,0,4.55-9.08L143.34,38a232.52,232.52,0,0,1,38.52-16L211.1,54.4a10.54,10.54,0,0,0,9.42,3.26c30.45-4.93,54-1.7,61.43-.12a10.36,10.36,0,0,0,9.78-3.17L321,22a232.52,232.52,0,0,1,38.52,16l-2.22,43.52a10.22,10.22,0,0,0,4.42,9c23.92,16.52,42.9,42.59,43.68,43.66a10.5,10.5,0,0,0,8.88,4.33h0l43.49-2.22a232.73,232.73,0,0,1,16,38.52l-32.39,29.25a10.26,10.26,0,0,0-3.23,9.5,169.5,169.5,0,0,1,2.39,32.86l12.81,22.15Zm-17.86,63.72A85.82,85.82,0,0,1,408.77,370v172.8A17.24,17.24,0,0,1,391.53,560h-69a17.24,17.24,0,0,1-17.24-17.25V370c-20.8-15.75-34.48-40.46-34.48-68.58a86.16,86.16,0,0,1,51.72-78.93v78.93l34.48,17.25,34.49-17.25V222.44a86.18,86.18,0,0,1,51.72,78.93Zm-31.91-38.1v50.35l-54.29,27.16-54.29-27.15V263.26c-33.37,56,10.65,88.66,22.39,96.84V540.17H389V360.1s59.72-36,22.38-96.83ZM567,422.06V542.75A17.24,17.24,0,0,1,549.75,560h-69a17.24,17.24,0,0,1-17.23-17.25V422.06a17.23,17.23,0,0,1,17.23-17.24v-86.2l-17.23-34.48,17.23-69h69l17.24,69-17.24,34.49v86.2A17.23,17.23,0,0,1,567,422.06ZM484.55,281.83l16.05,32.11v88.3h29.33V314L546,281.84,534.28,235h-38Zm62.62,142.8H483.36V540.17h63.81ZM515,526.85a17.34,17.34,0,1,0-17.33-17.33A17.34,17.34,0,0,0,515,526.85Z"/></svg>